<svg xmlns="http://www.w3.org/2000/svg" width="22.5" height="22.5" viewBox="0 0 22.5 22.5">
  <path id="Icon_awesome-fingerprint" data-name="Icon awesome-fingerprint" d="M11.256,10.809A1.055,1.055,0,0,0,10.2,11.864a32.134,32.134,0,0,1-1.217,9.3,1.055,1.055,0,1,0,2.031.57,34.012,34.012,0,0,0,1.3-9.867,1.054,1.054,0,0,0-1.054-1.055Zm-.038-3.592A4.4,4.4,0,0,0,6.684,11.66,28.832,28.832,0,0,1,6.1,17.924a1.055,1.055,0,1,0,2.065.427,30.939,30.939,0,0,0,.631-6.725,2.29,2.29,0,0,1,2.393-2.3,2.544,2.544,0,0,1,2.532,2.438,35.33,35.33,0,0,1-.466,6.308,1.054,1.054,0,1,0,2.08.343,37.485,37.485,0,0,0,.5-6.685A4.669,4.669,0,0,0,11.218,7.217ZM6.353,6.348A1.056,1.056,0,0,0,4.87,6.5a7.622,7.622,0,0,0-1.7,4.922,25.521,25.521,0,0,1-.4,4.924,1.055,1.055,0,0,0,2.076.375,27.641,27.641,0,0,0,.433-5.332,5.431,5.431,0,0,1,1.23-3.558A1.055,1.055,0,0,0,6.353,6.348Zm4.811-2.739a7.855,7.855,0,0,0-2.012.218A1.055,1.055,0,0,0,9.638,5.88a6.307,6.307,0,0,1,1.494-.162,6.151,6.151,0,0,1,6.1,5.914,38.719,38.719,0,0,1-.245,4.994,1.055,1.055,0,0,0,2.1.24,40.828,40.828,0,0,0,.259-5.267,8.276,8.276,0,0,0-8.181-7.991ZM22.242,8.946a1.055,1.055,0,1,0-2.06.454,10.958,10.958,0,0,1,.207,2.707,1.054,1.054,0,0,0,1.046,1.063h.009A1.055,1.055,0,0,0,22.5,12.125,13.059,13.059,0,0,0,22.242,8.946ZM20.478,4.959A11.69,11.69,0,0,0,11.11,0,11.007,11.007,0,0,0,3.1,3.205a10.481,10.481,0,0,0-3.09,7.634L0,11.783a1.054,1.054,0,0,0,1.023,1.085h.032a1.055,1.055,0,0,0,1.053-1.024l.007-1.039A8.384,8.384,0,0,1,4.589,4.7a8.906,8.906,0,0,1,6.49-2.587,9.574,9.574,0,0,1,7.674,4.06,1.054,1.054,0,1,0,1.725-1.212Z" transform="translate(-0.001)" fill="#fff"/>
</svg>
