<svg xmlns="http://www.w3.org/2000/svg" xmlns:xlink="http://www.w3.org/1999/xlink" width="45" height="54" viewBox="0 0 45 54">
  <defs>
    <filter id="Icon_awesome-file-upload" x="0" y="0" width="45" height="54" filterUnits="userSpaceOnUse">
      <feOffset dy="3" input="SourceAlpha"/>
      <feGaussianBlur stdDeviation="3" result="blur"/>
      <feFlood flood-opacity="0.612"/>
      <feComposite operator="in" in2="blur"/>
      <feComposite in="SourceGraphic"/>
    </filter>
  </defs>
  <g transform="matrix(1, 0, 0, 1, 0, 0)" filter="url(#Icon_awesome-file-upload)">
    <path id="Icon_awesome-file-upload-2" data-name="Icon awesome-file-upload" d="M15.75,9.563V0H1.688A1.683,1.683,0,0,0,0,1.688V34.313A1.683,1.683,0,0,0,1.688,36H25.313A1.683,1.683,0,0,0,27,34.313V11.25H17.438A1.692,1.692,0,0,1,15.75,9.563Zm4.583,15.188H15.75v5.625A1.125,1.125,0,0,1,14.625,31.5h-2.25a1.125,1.125,0,0,1-1.125-1.125V24.751H6.667a1.125,1.125,0,0,1-.792-1.924l6.78-6.729a1.2,1.2,0,0,1,1.69,0l6.78,6.729A1.125,1.125,0,0,1,20.333,24.751ZM26.508,7.383,19.624.492A1.686,1.686,0,0,0,18.429,0H18V9h9V8.571A1.682,1.682,0,0,0,26.508,7.383Z" transform="translate(9 6)" fill="#fff"/>
  </g>
</svg>
