<svg xmlns="http://www.w3.org/2000/svg" xmlns:xlink="http://www.w3.org/1999/xlink" width="58.481" height="51.988" viewBox="0 0 58.481 51.988">
  <defs>
    <filter id="Union_1" x="0" y="7" width="44.987" height="44.988" filterUnits="userSpaceOnUse">
      <feOffset dy="3" input="SourceAlpha"/>
      <feGaussianBlur stdDeviation="3" result="blur"/>
      <feFlood flood-opacity="0.459"/>
      <feComposite operator="in" in2="blur"/>
      <feComposite in="SourceGraphic"/>
    </filter>
    <filter id="Union_2" x="13.494" y="0" width="44.987" height="44.988" filterUnits="userSpaceOnUse">
      <feOffset dy="3" input="SourceAlpha"/>
      <feGaussianBlur stdDeviation="3" result="blur-2"/>
      <feFlood flood-opacity="0.459"/>
      <feComposite operator="in" in2="blur-2"/>
      <feComposite in="SourceGraphic"/>
    </filter>
  </defs>
  <g id="Group_438" data-name="Group 438" transform="translate(-646.759 -197.773)">
    <g transform="matrix(1, 0, 0, 1, 646.76, 197.77)" filter="url(#Union_1)">
      <path id="Union_1-2" data-name="Union 1" d="M0,26.987V23.615c0-3.712,6.072-6.748,13.494-6.748S26.987,19.9,26.987,23.615v3.373ZM6.746,6.748a6.747,6.747,0,1,1,6.748,6.746A6.748,6.748,0,0,1,6.746,6.748Z" transform="translate(9 13)" fill="#fff"/>
    </g>
    <g transform="matrix(1, 0, 0, 1, 646.76, 197.77)" filter="url(#Union_2)">
      <path id="Union_2-2" data-name="Union 2" d="M0,26.987V23.615c0-3.712,6.072-6.748,13.494-6.748S26.987,19.9,26.987,23.615v3.373ZM6.746,6.748a6.747,6.747,0,1,1,6.748,6.746A6.748,6.748,0,0,1,6.746,6.748Z" transform="translate(22.49 6)" fill="#fff"/>
    </g>
  </g>
</svg>
