<svg xmlns="http://www.w3.org/2000/svg" width="21.281" height="23.626" viewBox="0 0 21.281 23.626">
  <g id="Icon_ionic-ios-notifications" data-name="Icon ionic-ios-notifications" transform="translate(-6.761 -3.93)">
    <path id="Path_48" data-name="Path 48" d="M15.146,28.932a.53.53,0,0,0,.541-.6H14.6A.53.53,0,0,0,15.146,28.932Z" transform="translate(2.233 -1.375)" fill="#fff"/>
    <path id="Path_49" data-name="Path 49" d="M27.773,24.535c-1.025-1.412-3.04-2.239-3.04-8.56,0-6.488-2.741-9.1-5.3-9.722-.239-.063-.412-.146-.412-.41v-.2a1.625,1.625,0,1,0-3.246,0v.2c0,.257-.173.348-.412.41-2.561.633-5.3,3.234-5.3,9.722,0,6.321-2.016,7.142-3.04,8.56a1.385,1.385,0,0,0,1.058,2.211H26.722A1.386,1.386,0,0,0,27.773,24.535Z" transform="translate(0 0)" fill="#fff"/>
  </g>
</svg>
