<svg id="Icon_feather-settings" data-name="Icon feather-settings" xmlns="http://www.w3.org/2000/svg" width="32.802" height="32.802" viewBox="0 0 32.802 32.802">
  <path id="Path_50" data-name="Path 50" d="M21.628,17.564A4.064,4.064,0,1,1,17.564,13.5,4.064,4.064,0,0,1,21.628,17.564Z" transform="translate(-1.163 -1.163)" fill="none" stroke="#fff" stroke-linecap="round" stroke-linejoin="round" stroke-width="3"/>
  <path id="Path_51" data-name="Path 51" d="M26.425,20.465a2.235,2.235,0,0,0,.447,2.465l.081.081a2.711,2.711,0,1,1-3.834,3.834l-.081-.081a2.253,2.253,0,0,0-3.82,1.6v.23a2.709,2.709,0,0,1-5.419,0v-.122a2.235,2.235,0,0,0-1.463-2.045,2.235,2.235,0,0,0-2.465.447l-.081.081A2.711,2.711,0,1,1,5.957,23.12l.081-.081a2.253,2.253,0,0,0-1.6-3.82h-.23a2.709,2.709,0,1,1,0-5.419h.122a2.235,2.235,0,0,0,2.046-1.463A2.235,2.235,0,0,0,5.93,9.872L5.848,9.79A2.711,2.711,0,1,1,9.682,5.957l.081.081a2.235,2.235,0,0,0,2.465.447h.108A2.235,2.235,0,0,0,13.692,4.44v-.23a2.709,2.709,0,1,1,5.419,0v.122a2.253,2.253,0,0,0,3.82,1.6l.081-.081a2.711,2.711,0,1,1,3.834,3.834l-.081.081a2.235,2.235,0,0,0-.447,2.465v.108a2.235,2.235,0,0,0,2.045,1.355h.23a2.709,2.709,0,0,1,0,5.419h-.122a2.235,2.235,0,0,0-2.045,1.355Z" fill="none" stroke="#fff" stroke-linecap="round" stroke-linejoin="round" stroke-width="3"/>
</svg>
